<svg preserveAspectRatio="none" width="100%" height="100%" overflow="visible" style="display: block;" viewBox="0 0 16 16" fill="none" xmlns="http://www.w3.org/2000/svg">
<g id="SVG">
<path id="Vector" d="M2.66699 1.33203V14.6654L4.00033 13.9987L5.33366 14.6654L6.66699 13.9987L8.00033 14.6654L9.33366 13.9987L10.667 14.6654L12.0003 13.9987L13.3337 14.6654V1.33203L12.0003 1.9987L10.667 1.33203L9.33366 1.9987L8.00033 1.33203L6.66699 1.9987L5.33366 1.33203L4.00033 1.9987L2.66699 1.33203Z" stroke="var(--stroke-0, #2760F5)" stroke-width="1.33333" stroke-linecap="round" stroke-linejoin="round"/>
<path id="Vector_2" d="M10.6663 5.33203H6.66634C6.31272 5.33203 5.97358 5.47251 5.72353 5.72256C5.47348 5.9726 5.33301 6.31174 5.33301 6.66536C5.33301 7.01899 5.47348 7.35812 5.72353 7.60817C5.97358 7.85822 6.31272 7.9987 6.66634 7.9987H9.33301C9.68663 7.9987 10.0258 8.13917 10.2758 8.38922C10.5259 8.63927 10.6663 8.97841 10.6663 9.33203C10.6663 9.68565 10.5259 10.0248 10.2758 10.2748C10.0258 10.5249 9.68663 10.6654 9.33301 10.6654H5.33301" stroke="var(--stroke-0, #2760F5)" stroke-width="1.33333" stroke-linecap="round" stroke-linejoin="round"/>
<path id="Vector_3" d="M8 11.6654V4.33203" stroke="var(--stroke-0, #2760F5)" stroke-width="1.33333" stroke-linecap="round" stroke-linejoin="round"/>
</g>
</svg>
