<svg preserveAspectRatio="none" width="100%" height="100%" overflow="visible" style="display: block;" viewBox="0 0 14 14" fill="none" xmlns="http://www.w3.org/2000/svg">
<g id="SVG" clip-path="url(#clip0_0_62)">
<path id="Vector" d="M6.42733 1.64029C6.45232 1.50648 6.52333 1.38562 6.62805 1.29865C6.73277 1.21167 6.86462 1.16406 7.00075 1.16406C7.13687 1.16406 7.26872 1.21167 7.37344 1.29865C7.47816 1.38562 7.54917 1.50648 7.57416 1.64029L8.18725 4.88246C8.23079 5.11296 8.34281 5.32499 8.50868 5.49086C8.67455 5.65673 8.88658 5.76875 9.11708 5.81229L12.3592 6.42538C12.4931 6.45037 12.6139 6.52138 12.7009 6.6261C12.7879 6.73082 12.8355 6.86266 12.8355 6.99879C12.8355 7.13492 12.7879 7.26676 12.7009 7.37149C12.6139 7.47621 12.4931 7.54722 12.3592 7.57221L9.11708 8.18529C8.88658 8.22884 8.67455 8.34085 8.50868 8.50673C8.34281 8.6726 8.23079 8.88462 8.18725 9.11513L7.57416 12.3573C7.54917 12.4911 7.47816 12.612 7.37344 12.6989C7.26872 12.7859 7.13687 12.8335 7.00075 12.8335C6.86462 12.8335 6.73277 12.7859 6.62805 12.6989C6.52333 12.612 6.45232 12.4911 6.42733 12.3573L5.81425 9.11513C5.7707 8.88462 5.65868 8.6726 5.49281 8.50673C5.32694 8.34085 5.11492 8.22884 4.88441 8.18529L1.64225 7.57221C1.50843 7.54722 1.38757 7.47621 1.3006 7.37149C1.21362 7.26676 1.16602 7.13492 1.16602 6.99879C1.16602 6.86266 1.21362 6.73082 1.3006 6.6261C1.38757 6.52138 1.50843 6.45037 1.64225 6.42538L4.88441 5.81229C5.11492 5.76875 5.32694 5.65673 5.49281 5.49086C5.65868 5.32499 5.7707 5.11296 5.81425 4.88246L6.42733 1.64029Z" stroke="var(--stroke-0, #0019FF)" stroke-width="1.16667" stroke-linecap="round" stroke-linejoin="round"/>
<path id="Vector_2" d="M11.666 1.16797V3.5013" stroke="var(--stroke-0, #0019FF)" stroke-width="1.16667" stroke-linecap="round" stroke-linejoin="round"/>
<path id="Vector_3" d="M12.8333 2.33203H10.5" stroke="var(--stroke-0, #0019FF)" stroke-width="1.16667" stroke-linecap="round" stroke-linejoin="round"/>
<path id="Vector_4" d="M2.33268 12.8333C2.97701 12.8333 3.49935 12.311 3.49935 11.6667C3.49935 11.0223 2.97701 10.5 2.33268 10.5C1.68835 10.5 1.16602 11.0223 1.16602 11.6667C1.16602 12.311 1.68835 12.8333 2.33268 12.8333Z" stroke="var(--stroke-0, #0019FF)" stroke-width="1.16667" stroke-linecap="round" stroke-linejoin="round"/>
</g>
<defs>
<clipPath id="clip0_0_62">
<rect width="14" height="14" fill="white"/>
</clipPath>
</defs>
</svg>
