<svg preserveAspectRatio="none" width="100%" height="100%" overflow="visible" style="display: block;" viewBox="0 0 16 16" fill="none" xmlns="http://www.w3.org/2000/svg">
<g id="SVG">
<path id="Vector" d="M6 2H2.66667C2.29848 2 2 2.29848 2 2.66667V7.33333C2 7.70152 2.29848 8 2.66667 8H6C6.36819 8 6.66667 7.70152 6.66667 7.33333V2.66667C6.66667 2.29848 6.36819 2 6 2Z" stroke="var(--stroke-0, #2031C2)" stroke-width="1.33333" stroke-linecap="round" stroke-linejoin="round"/>
<path id="Vector_2" d="M13.332 2H9.9987C9.63051 2 9.33203 2.29848 9.33203 2.66667V4.66667C9.33203 5.03486 9.63051 5.33333 9.9987 5.33333H13.332C13.7002 5.33333 13.9987 5.03486 13.9987 4.66667V2.66667C13.9987 2.29848 13.7002 2 13.332 2Z" stroke="var(--stroke-0, #2031C2)" stroke-width="1.33333" stroke-linecap="round" stroke-linejoin="round"/>
<path id="Vector_3" d="M13.332 8H9.9987C9.63051 8 9.33203 8.29848 9.33203 8.66667V13.3333C9.33203 13.7015 9.63051 14 9.9987 14H13.332C13.7002 14 13.9987 13.7015 13.9987 13.3333V8.66667C13.9987 8.29848 13.7002 8 13.332 8Z" stroke="var(--stroke-0, #2031C2)" stroke-width="1.33333" stroke-linecap="round" stroke-linejoin="round"/>
<path id="Vector_4" d="M6 10.668H2.66667C2.29848 10.668 2 10.9664 2 11.3346V13.3346C2 13.7028 2.29848 14.0013 2.66667 14.0013H6C6.36819 14.0013 6.66667 13.7028 6.66667 13.3346V11.3346C6.66667 10.9664 6.36819 10.668 6 10.668Z" stroke="var(--stroke-0, #2031C2)" stroke-width="1.33333" stroke-linecap="round" stroke-linejoin="round"/>
</g>
</svg>
