<svg preserveAspectRatio="none" width="100%" height="100%" overflow="visible" style="display: block;" viewBox="0 0 16 16" fill="none" xmlns="http://www.w3.org/2000/svg">
<g id="SVG">
<path id="Vector" d="M6.44754 2.75613C6.48427 2.36969 6.66376 2.01083 6.95094 1.74965C7.23812 1.48848 7.61235 1.34375 8.00054 1.34375C8.38872 1.34375 8.76296 1.48848 9.05014 1.74965C9.33732 2.01083 9.5168 2.36969 9.55354 2.75613C9.57561 3.00577 9.65751 3.24641 9.79229 3.45769C9.92707 3.66897 10.1108 3.84467 10.3278 3.96992C10.5449 4.09516 10.789 4.16627 11.0393 4.17721C11.2897 4.18816 11.539 4.13862 11.7662 4.0328C12.1189 3.87265 12.5187 3.84948 12.8875 3.96779C13.2564 4.0861 13.5681 4.33743 13.7619 4.67287C13.9557 5.00831 14.0177 5.40385 13.936 5.78251C13.8542 6.16118 13.6345 6.49588 13.3195 6.72147C13.1145 6.86536 12.9471 7.05654 12.8315 7.27882C12.7159 7.50109 12.6556 7.74794 12.6556 7.99847C12.6556 8.24899 12.7159 8.49584 12.8315 8.71812C12.9471 8.94039 13.1145 9.13157 13.3195 9.27547C13.6345 9.50106 13.8542 9.83575 13.936 10.2144C14.0177 10.5931 13.9557 10.9886 13.7619 11.3241C13.5681 11.6595 13.2564 11.9108 12.8875 12.0291C12.5187 12.1475 12.1189 12.1243 11.7662 11.9641C11.539 11.8583 11.2897 11.8088 11.0393 11.8197C10.789 11.8307 10.5449 11.9018 10.3278 12.027C10.1108 12.1523 9.92707 12.328 9.79229 12.5392C9.65751 12.7505 9.57561 12.9912 9.55354 13.2408C9.5168 13.6272 9.33732 13.9861 9.05014 14.2473C8.76296 14.5085 8.38872 14.6532 8.00054 14.6532C7.61235 14.6532 7.23812 14.5085 6.95094 14.2473C6.66376 13.9861 6.48427 13.6272 6.44754 13.2408C6.4255 12.9911 6.3436 12.7503 6.20878 12.539C6.07396 12.3276 5.89018 12.1519 5.67302 12.0266C5.45586 11.9014 5.21172 11.8303 4.96126 11.8194C4.7108 11.8085 4.4614 11.8582 4.2342 11.9641C3.88146 12.1243 3.48175 12.1475 3.11287 12.0291C2.74399 11.9108 2.43232 11.6595 2.23853 11.3241C2.04473 10.9886 1.98268 10.5931 2.06444 10.2144C2.14621 9.83575 2.36594 9.50106 2.68087 9.27547C2.88595 9.13157 3.05336 8.94039 3.16893 8.71812C3.2845 8.49584 3.34484 8.24899 3.34484 7.99847C3.34484 7.74794 3.2845 7.50109 3.16893 7.27882C3.05336 7.05654 2.88595 6.86536 2.68087 6.72147C2.36638 6.49576 2.14704 6.1612 2.06547 5.78279C1.9839 5.40438 2.04594 5.00916 2.23953 4.67394C2.43311 4.33872 2.74441 4.08745 3.11293 3.96896C3.48145 3.85047 3.88086 3.87322 4.23354 4.0328C4.46071 4.13862 4.71003 4.18816 4.9604 4.17721C5.21078 4.16627 5.45482 4.09516 5.67189 3.96992C5.88896 3.84467 6.07266 3.66897 6.20745 3.45769C6.34223 3.24641 6.42413 3.00577 6.4462 2.75613" stroke="var(--stroke-0, #070D1A)" stroke-opacity="0.7" stroke-width="1.33333" stroke-linecap="round" stroke-linejoin="round"/>
<path id="Vector_2" d="M8 10C9.10457 10 10 9.10457 10 8C10 6.89543 9.10457 6 8 6C6.89543 6 6 6.89543 6 8C6 9.10457 6.89543 10 8 10Z" stroke="var(--stroke-0, #070D1A)" stroke-opacity="0.7" stroke-width="1.33333" stroke-linecap="round" stroke-linejoin="round"/>
</g>
</svg>
