<svg preserveAspectRatio="none" width="100%" height="100%" overflow="visible" style="display: block;" viewBox="0 0 16 16" fill="none" xmlns="http://www.w3.org/2000/svg">
<g id="SVG">
<path id="Vector" d="M4.0013 14.6654C3.64768 14.6654 3.30854 14.5249 3.05849 14.2748C2.80844 14.0248 2.66797 13.6857 2.66797 13.332V2.66537C2.66797 2.31174 2.80844 1.97261 3.05849 1.72256C3.30854 1.47251 3.64768 1.33203 4.0013 1.33203H9.33464C9.54567 1.33169 9.75469 1.3731 9.94966 1.45388C10.1446 1.53466 10.3217 1.65321 10.4706 1.8027L12.8626 4.1947C13.0125 4.3437 13.1314 4.52093 13.2124 4.71614C13.2934 4.91135 13.335 5.12068 13.3346 5.33203V13.332C13.3346 13.6857 13.1942 14.0248 12.9441 14.2748C12.6941 14.5249 12.3549 14.6654 12.0013 14.6654H4.0013Z" stroke="var(--stroke-0, #070D1A)" stroke-opacity="0.7" stroke-width="1.33333" stroke-linecap="round" stroke-linejoin="round"/>
<path id="Vector_2" d="M9.33203 1.33203V4.66536C9.33203 4.84218 9.40227 5.01174 9.52729 5.13677C9.65232 5.26179 9.82189 5.33203 9.9987 5.33203H13.332" stroke="var(--stroke-0, #070D1A)" stroke-opacity="0.7" stroke-width="1.33333" stroke-linecap="round" stroke-linejoin="round"/>
<path id="Vector_3" d="M6.66536 6H5.33203" stroke="var(--stroke-0, #070D1A)" stroke-opacity="0.7" stroke-width="1.33333" stroke-linecap="round" stroke-linejoin="round"/>
<path id="Vector_4" d="M10.6654 8.66797H5.33203" stroke="var(--stroke-0, #070D1A)" stroke-opacity="0.7" stroke-width="1.33333" stroke-linecap="round" stroke-linejoin="round"/>
<path id="Vector_5" d="M10.6654 11.332H5.33203" stroke="var(--stroke-0, #070D1A)" stroke-opacity="0.7" stroke-width="1.33333" stroke-linecap="round" stroke-linejoin="round"/>
</g>
</svg>
