<svg preserveAspectRatio="none" width="100%" height="100%" overflow="visible" style="display: block;" viewBox="0 0 16 16" fill="none" xmlns="http://www.w3.org/2000/svg">
<g id="SVG">
<path id="Vector" d="M10.832 5.17578C11.5807 5.92573 12.0012 6.9421 12.0012 8.00178C12.0012 9.06146 11.5807 10.0778 10.832 10.8278" stroke="var(--stroke-0, white)" stroke-width="1.33333" stroke-linecap="round" stroke-linejoin="round"/>
<path id="Vector_2" d="M12.7168 3.28906C13.9654 4.53908 14.6667 6.23361 14.6667 8.0004C14.6667 9.76718 13.9654 11.4617 12.7168 12.7117" stroke="var(--stroke-0, white)" stroke-width="1.33333" stroke-linecap="round" stroke-linejoin="round"/>
<path id="Vector_3" d="M3.2839 12.7117C2.03531 11.4617 1.33398 9.76718 1.33398 8.0004C1.33398 6.23361 2.03531 4.53908 3.2839 3.28906" stroke="var(--stroke-0, white)" stroke-width="1.33333" stroke-linecap="round" stroke-linejoin="round"/>
<path id="Vector_4" d="M5.16915 10.8278C4.42049 10.0778 4 9.06146 4 8.00178C4 6.9421 4.42049 5.92573 5.16915 5.17578" stroke="var(--stroke-0, white)" stroke-width="1.33333" stroke-linecap="round" stroke-linejoin="round"/>
<path id="Vector_5" d="M7.99935 9.33464C8.73573 9.33464 9.33268 8.73768 9.33268 8.0013C9.33268 7.26492 8.73573 6.66797 7.99935 6.66797C7.26297 6.66797 6.66602 7.26492 6.66602 8.0013C6.66602 8.73768 7.26297 9.33464 7.99935 9.33464Z" stroke="var(--stroke-0, white)" stroke-width="1.33333" stroke-linecap="round" stroke-linejoin="round"/>
</g>
</svg>
