<svg preserveAspectRatio="none" width="100%" height="100%" overflow="visible" style="display: block;" viewBox="0 0 16 16" fill="none" xmlns="http://www.w3.org/2000/svg">
<g id="SVG">
<path id="Vector" d="M10.8313 5.174C11.58 5.92395 12.0005 6.94032 12.0005 8C12.0005 9.05968 11.58 10.0761 10.8313 10.826" stroke="var(--stroke-0, white)" stroke-width="1.33333" stroke-linecap="round" stroke-linejoin="round"/>
<path id="Vector_2" d="M12.7167 3.28867C13.9653 4.53869 14.6666 6.23322 14.6666 8C14.6666 9.76678 13.9653 11.4613 12.7167 12.7113" stroke="var(--stroke-0, white)" stroke-width="1.33333" stroke-linecap="round" stroke-linejoin="round"/>
<path id="Vector_3" d="M3.28333 12.7113C2.03475 11.4613 1.33342 9.76678 1.33342 8C1.33342 6.23322 2.03475 4.53869 3.28333 3.28867" stroke="var(--stroke-0, white)" stroke-width="1.33333" stroke-linecap="round" stroke-linejoin="round"/>
<path id="Vector_4" d="M5.16867 10.826C4.42 10.0761 3.99952 9.05968 3.99952 8C3.99952 6.94032 4.42 5.92395 5.16867 5.174" stroke="var(--stroke-0, white)" stroke-width="1.33333" stroke-linecap="round" stroke-linejoin="round"/>
<path id="Vector_5" d="M8 9.33333C8.73638 9.33333 9.33333 8.73638 9.33333 8C9.33333 7.26362 8.73638 6.66667 8 6.66667C7.26362 6.66667 6.66667 7.26362 6.66667 8C6.66667 8.73638 7.26362 9.33333 8 9.33333Z" stroke="var(--stroke-0, white)" stroke-width="1.33333" stroke-linecap="round" stroke-linejoin="round"/>
</g>
</svg>
