<svg width="16" height="16" viewBox="0 0 16 16" fill="none" xmlns="http://www.w3.org/2000/svg">
<g clip-path="url(#clip0_1770_3943)">
<path d="M14.6654 7.9987H13.012C12.7207 7.99807 12.4371 8.0929 12.2048 8.26868C11.9724 8.44445 11.804 8.6915 11.7254 8.97203L10.1587 14.5454C10.1486 14.58 10.1275 14.6104 10.0987 14.632C10.0698 14.6537 10.0348 14.6654 9.9987 14.6654C9.96264 14.6654 9.92755 14.6537 9.8987 14.632C9.86985 14.6104 9.8488 14.58 9.8387 14.5454L6.1587 1.45203C6.1486 1.41741 6.12755 1.387 6.0987 1.36536C6.06985 1.34373 6.03476 1.33203 5.9987 1.33203C5.96264 1.33203 5.92755 1.34373 5.8987 1.36536C5.86985 1.387 5.8488 1.41741 5.8387 1.45203L4.27203 7.02536C4.19367 7.3048 4.02629 7.55104 3.79527 7.72671C3.56426 7.90237 3.28224 7.99787 2.99203 7.9987H1.33203" stroke="#070D1A" stroke-opacity="0.7" stroke-width="1.33333" stroke-linecap="round" stroke-linejoin="round"/>
</g>
<defs>
<clipPath id="clip0_1770_3943">
<rect width="16" height="16" fill="white"/>
</clipPath>
</defs>
</svg>
